<svg id="グループ_25" data-name="グループ 25" xmlns="http://www.w3.org/2000/svg" xmlns:xlink="http://www.w3.org/1999/xlink" width="53.117" height="53.076" viewBox="0 0 53.117 53.076">
  <defs>
    <clipPath id="clip-path">
      <rect id="長方形_22" data-name="長方形 22" width="53.117" height="53.076" fill="#707070"/>
    </clipPath>
    <clipPath id="clip-path-2">
      <rect id="長方形_21" data-name="長方形 21" width="53.117" height="53.077" fill="#707070"/>
    </clipPath>
  </defs>
  <g id="グループ_24" data-name="グループ 24" clip-path="url(#clip-path)">
    <g id="グループ_23" data-name="グループ 23" transform="translate(0 -0.001)">
      <g id="グループ_22" data-name="グループ 22" clip-path="url(#clip-path-2)">
        <g id="グループ_21" data-name="グループ 21" transform="translate(0 0.001)" opacity="0.69">
          <g id="グループ_20" data-name="グループ 20">
            <g id="グループ_19" data-name="グループ 19" clip-path="url(#clip-path)">
              <path id="パス_30" data-name="パス 30" d="M26.561.022c3.025,0,6.048-.035,9.071.01a25.7,25.7,0,0,1,7.34.993A13.351,13.351,0,0,1,51.5,8.767a16.369,16.369,0,0,1,1.422,6.18c.107,3.747.15,7.5.181,11.247q.036,4.537-.028,9.074a25.945,25.945,0,0,1-1.051,7.854c-1.574,4.772-4.941,7.641-9.649,9.076a22.523,22.523,0,0,1-6.486.852q-9.349.05-18.7,0a23.845,23.845,0,0,1-6.83-.92A13.442,13.442,0,0,1,1.192,43.3,17.819,17.819,0,0,1,.141,37.51q-.1-8-.139-16c-.008-2.105.019-4.215.148-6.316A16.483,16.483,0,0,1,3.141,5.949,14.168,14.168,0,0,1,11.029.8a27.562,27.562,0,0,1,6.9-.778c2.877-.036,5.755-.008,8.632-.008V.022M26.515,48.36v.058c3.126-.049,6.251-.12,9.376-.136a21.147,21.147,0,0,0,4.741-.554,8.965,8.965,0,0,0,6.266-4.67,13.167,13.167,0,0,0,1.216-5.3q.224-3.39.272-6.79c.045-3.1.011-6.2.011-9.294a50.872,50.872,0,0,0-.51-8.507A10.09,10.09,0,0,0,45.2,7.727a8.48,8.48,0,0,0-4.69-2.387,39.031,39.031,0,0,0-7.018-.6c-5.393-.015-10.788.052-16.181.07a23.293,23.293,0,0,0-4.7.528A9,9,0,0,0,5.3,12.782a50.436,50.436,0,0,0-.585,7.854c-.036,4.173-.05,8.348.006,12.521A31.475,31.475,0,0,0,5.443,40.8a8.856,8.856,0,0,0,4.666,6.1,10.554,10.554,0,0,0,3.827,1.042c1.518.134,3.031.358,4.551.4,2.675.065,5.351.018,8.028.018" transform="translate(0 0)" fill="#707070"/>
              <path id="パス_31" data-name="パス 31" d="M22.831,36.564A13.617,13.617,0,0,1,9.176,22.208a13.68,13.68,0,0,1,27.34.88A13.624,13.624,0,0,1,22.831,36.564M22.874,14a8.876,8.876,0,1,0,8.908,8.835A8.945,8.945,0,0,0,22.874,14" transform="translate(3.595 3.625)" fill="#707070"/>
              <path id="パス_32" data-name="パス 32" d="M30.121,12.936a3.411,3.411,0,0,1-3.208-3.392A3.474,3.474,0,0,1,30.167,6.5a3.407,3.407,0,0,1,3.217,3.263,3.4,3.4,0,0,1-3.263,3.172" transform="translate(10.561 2.552)" fill="#707070"/>
            </g>
          </g>
        </g>
      </g>
    </g>
  </g>
</svg>
