<svg xmlns="http://www.w3.org/2000/svg" xmlns:xlink="http://www.w3.org/1999/xlink" width="53.117" height="39.835" viewBox="0 0 53.117 39.835">
  <defs>
    <clipPath id="clip-path">
      <rect id="長方形_23" data-name="長方形 23" width="53.117" height="39.835" fill="#707070"/>
    </clipPath>
  </defs>
  <g id="グループ_27" data-name="グループ 27" opacity="0.69">
    <g id="グループ_26" data-name="グループ 26" clip-path="url(#clip-path)">
      <path id="パス_33" data-name="パス 33" d="M26.559,39.835H5.087A4.928,4.928,0,0,1,0,34.776Q0,19.891,0,5.006A4.938,4.938,0,0,1,4.985,0H48.136a4.931,4.931,0,0,1,4.98,4.955q0,14.963,0,29.926a4.931,4.931,0,0,1-4.981,4.953H26.559M3.47,5.752l-.133.076c0,.1-.014.2-.014.3q0,14.234,0,28.469a1.715,1.715,0,0,0,1.924,1.919q21.286,0,42.572,0A1.735,1.735,0,0,0,49.8,34.54q0-14.182,0-28.364c0-.124-.025-.247-.052-.489-.2.227-.32.376-.454.509Q38.657,16.831,28.023,27.463c-1.047,1.047-1.881,1.047-2.929,0Q14.461,16.829,3.83,6.194a5.407,5.407,0,0,1-.36-.442m2.372-2.42L26.494,23.983,47.145,3.332Z" transform="translate(0 0)" fill="#707070"/>
    </g>
  </g>
</svg>
