<svg xmlns="http://www.w3.org/2000/svg" xmlns:xlink="http://www.w3.org/1999/xlink" width="443" height="38.568" viewBox="0 0 443 38.568"><defs><clipPath id="a"><rect width="443" height="38.568" transform="translate(0 0)" fill="#030e0e"/></clipPath></defs><g clip-path="url(#a)"><path d="M8.669,15.438,19.243,1.723A.567.567,0,0,1,19.69,1.5l8.283-.031a.567.567,0,0,1,.436.931L14.8,18.633a.568.568,0,0,0,0,.725L29.765,37.539a.567.567,0,0,1-.436.927l-8.863.031a.568.568,0,0,1-.449-.218L8.667,23.765a.567.567,0,0,0-1.014.349V37.932a.566.566,0,0,1-.567.567H.567A.567.567,0,0,1,0,37.932V2.07A.567.567,0,0,1,.567,1.5H7.086a.566.566,0,0,1,.567.567V15.092a.567.567,0,0,0,1.016.346" transform="translate(0 -0.551)" fill="#030e0e"/><path d="M89.6,38.481H82.195a.573.573,0,0,1-.528-.352L79.2,32.26a.574.574,0,0,0-.529-.351h-14a.572.572,0,0,0-.536.37l-2.2,5.83a.572.572,0,0,1-.536.371h-7.2a.573.573,0,0,1-.534-.781L67.62,1.889a.572.572,0,0,1,.534-.365h7.111a.572.572,0,0,1,.532.36L90.135,37.695a.573.573,0,0,1-.532.786M76.417,24.933,72.163,11.825a.573.573,0,0,0-1.089,0L66.82,24.933a.573.573,0,0,0,.545.75h8.507a.573.573,0,0,0,.545-.75" transform="translate(-20.071 -0.571)" fill="#030e0e"/><path d="M121.167,37.917V2.092a.57.57,0,0,1,.569-.569h11.182a.57.57,0,0,1,.547.411l6.644,22.9a.569.569,0,0,0,1.094,0l6.568-22.9a.57.57,0,0,1,.548-.412h11.208a.57.57,0,0,1,.569.569V37.917a.569.569,0,0,1-.563.569l-5.764.06a.569.569,0,0,1-.575-.569V13.361a.569.569,0,0,0-1.115-.163l-7.422,24.877a.569.569,0,0,1-.545.406h-6.675a.569.569,0,0,1-.544-.4l-7.71-25.007a.569.569,0,0,0-1.113.168V37.977a.569.569,0,0,1-.575.569l-5.764-.06a.569.569,0,0,1-.563-.569" transform="translate(-45.345 -0.57)" fill="#030e0e"/><path d="M256.328,37.907V8.349a.574.574,0,0,0-.574-.574h-9.819a.573.573,0,0,1-.573-.573V2.1a.573.573,0,0,1,.573-.573h28.222a.574.574,0,0,1,.574.573V7.2a.574.574,0,0,1-.574.573h-9.794a.574.574,0,0,0-.573.574V37.907a.574.574,0,0,1-.574.574H256.9a.574.574,0,0,1-.574-.574" transform="translate(-91.824 -0.571)" fill="#030e0e"/><path d="M380.712,37.918v-14.4a.551.551,0,0,0-.089-.3l-13.514-20.8a.551.551,0,0,1,.462-.851h9.823a.552.552,0,0,1,.5.328l3.776,8.54c1.193,2.683,1.987,4.654,2.953,7.062h.113c.852-2.3,1.763-4.435,2.9-7.062L391.357,1.9a.551.551,0,0,1,.5-.331H401.5a.551.551,0,0,1,.462.85L388.692,22.949a.55.55,0,0,0-.088.3v14.67a.551.551,0,0,1-.551.551h-6.791a.551.551,0,0,1-.551-.551" transform="translate(-137.353 -0.588)" fill="#030e0e"/><path d="M431.15,1.344h7.323V21.431a42.52,42.52,0,0,0,.272,6.2,6.019,6.019,0,0,0,2.239,3.655,7.671,7.671,0,0,0,4.836,1.379,7.263,7.263,0,0,0,4.7-1.3,5.172,5.172,0,0,0,1.9-3.2,42.734,42.734,0,0,0,.322-6.3V1.344h7.323v19.48a51.188,51.188,0,0,1-.594,9.436,10.542,10.542,0,0,1-2.19,4.655,11.062,11.062,0,0,1-4.268,3.023,18.2,18.2,0,0,1-6.977,1.126,19.7,19.7,0,0,1-7.88-1.226,11.287,11.287,0,0,1-4.243-3.188,10.292,10.292,0,0,1-2.053-4.111,45.96,45.96,0,0,1-.718-9.411Z" transform="translate(-161.353 -0.503)" fill="#030e0e"/><path d="M488.143,25.135h6.249a.572.572,0,0,1,.559.468c.415,2.212.875,3.8,2.136,4.88a8.109,8.109,0,0,0,5.454,1.728,8.38,8.38,0,0,0,5.478-1.538,4.577,4.577,0,0,0,1.843-3.6,3.394,3.394,0,0,0-.776-2.25,6.2,6.2,0,0,0-2.708-1.614q-1.323-.458-6.025-1.627-6.052-1.5-8.492-3.686a9.7,9.7,0,0,1-3.432-7.5,9.579,9.579,0,0,1,1.615-5.326A10.1,10.1,0,0,1,494.7,1.3,18.649,18.649,0,0,1,502.031,0q7.017,0,10.563,3.076a11.351,11.351,0,0,1,3.641,7.947.568.568,0,0,1-.571.6l-6.4-.006a.572.572,0,0,1-.554-.463,6.073,6.073,0,0,0-1.985-3.669,7.588,7.588,0,0,0-4.767-1.258,8.6,8.6,0,0,0-5.136,1.347,2.715,2.715,0,0,0-1.195,2.314,2.86,2.86,0,0,0,1.118,2.263q1.423,1.195,6.915,2.491a36.544,36.544,0,0,1,8.123,2.682,10.475,10.475,0,0,1,4.119,3.788,11.082,11.082,0,0,1,1.487,5.937,10.984,10.984,0,0,1-1.78,6,10.67,10.67,0,0,1-5.034,4.157,21.115,21.115,0,0,1-8.11,1.36q-7.069,0-10.856-3.266c-2.4-2.066-3.5-5.607-4.03-9.523a.57.57,0,0,1,.566-.643" transform="translate(-182.468 0)" fill="#030e0e"/><path d="M662.272,1.333h6.193a.566.566,0,0,1,.566.566V21.427a42.685,42.685,0,0,0,.272,6.2,6.023,6.023,0,0,0,2.24,3.657,7.674,7.674,0,0,0,4.838,1.379,7.257,7.257,0,0,0,4.7-1.3,5.165,5.165,0,0,0,1.906-3.2,42.817,42.817,0,0,0,.322-6.3V1.9a.566.566,0,0,1,.566-.566h6.194a.566.566,0,0,1,.566.566V20.82a51.154,51.154,0,0,1-.594,9.44,10.544,10.544,0,0,1-2.189,4.657,11.078,11.078,0,0,1-4.27,3.024,18.208,18.208,0,0,1-6.978,1.126,19.7,19.7,0,0,1-7.882-1.227,11.281,11.281,0,0,1-4.244-3.189,10.3,10.3,0,0,1-2.054-4.112,46.086,46.086,0,0,1-.718-9.415V1.9a.566.566,0,0,1,.566-.566" transform="translate(-247.636 -0.499)" fill="#030e0e"/><path d="M616.1,15.2,626.67,1.487a.57.57,0,0,1,.448-.222l8.279-.03a.568.568,0,0,1,.437.934L622.225,18.4a.569.569,0,0,0,0,.727L637.19,37.3a.569.569,0,0,1-.437.93l-8.859.031a.57.57,0,0,1-.45-.218L616.1,23.532a.568.568,0,0,0-1.016.35V37.694a.568.568,0,0,1-.568.569h-6.517a.569.569,0,0,1-.568-.569V1.834a.569.569,0,0,1,.568-.568h6.517a.568.568,0,0,1,.568.568V14.851a.569.569,0,0,0,1.019.347" transform="translate(-227.322 -0.462)" fill="#030e0e"/><path d="M227.547,38.244h-7.4a.575.575,0,0,1-.531-.352l-2.462-5.867a.576.576,0,0,0-.531-.352H202.628a.575.575,0,0,0-.538.372l-2.2,5.826a.575.575,0,0,1-.538.372h-7.194a.575.575,0,0,1-.536-.784L205.566,1.654a.577.577,0,0,1,.537-.367h7.107a.576.576,0,0,1,.534.362l14.337,35.805a.576.576,0,0,1-.534.79M214.363,24.692l-4.25-13.1a.576.576,0,0,0-1.1,0l-4.25,13.1a.576.576,0,0,0,.548.753h8.5a.576.576,0,0,0,.548-.753" transform="translate(-71.697 -0.482)" fill="#030e0e"/><path d="M323.641,38.245h-7.425a.565.565,0,0,1-.521-.347l-2.468-5.878a.565.565,0,0,0-.521-.346H298.7a.563.563,0,0,0-.529.365l-2.206,5.84a.565.565,0,0,1-.529.367H288.22a.565.565,0,0,1-.527-.771L301.648,1.648a.564.564,0,0,1,.526-.36H309.3a.564.564,0,0,1,.524.355L324.166,37.47a.566.566,0,0,1-.525.775M310.447,24.707l-4.264-13.14a.565.565,0,0,0-1.076,0l-4.264,13.14a.565.565,0,0,0,.538.74h8.528a.565.565,0,0,0,.538-.74" transform="translate(-107.651 -0.482)" fill="#030e0e"/><path d="M576.1,38.244h-7.426a.564.564,0,0,1-.52-.346l-2.468-5.879a.565.565,0,0,0-.521-.347H551.161a.565.565,0,0,0-.528.365l-2.206,5.841a.565.565,0,0,1-.529.365h-7.217a.565.565,0,0,1-.526-.77L554.109,1.647a.564.564,0,0,1,.526-.36h7.122a.565.565,0,0,1,.524.355l14.346,35.827a.565.565,0,0,1-.524.775M562.908,24.706l-4.265-13.141a.565.565,0,0,0-1.075,0L553.3,24.706a.565.565,0,0,0,.537.74h8.529a.565.565,0,0,0,.538-.74" transform="translate(-202.132 -0.482)" fill="#030e0e"/></g></svg>